<?xml version="1.0" encoding="UTF-8"?>
<svg version="1.1" xmlns="http://www.w3.org/2000/svg" width="800" height="250">
<path d="M0 0 C10.40068589 6.30114547 19.46794075 16.66591798 27.33203125 25.85546875 C32.41130315 31.73399161 38.09480059 37.03671247 43.70507812 42.40234375 C52.67667733 51.19057189 59.10371205 60.17336124 59.38061523 73.1015625 C59.34800435 85.57877231 56.7176221 94.68237961 48 104 C46.0029401 105.88315915 43.96742414 107.67363411 41.8515625 109.421875 C40.16511676 110.85926757 38.72539716 112.35262403 37.25 114 C36.5075 114.66 35.765 115.32 35 116 C30.37618887 115.51820945 28.13722424 112.25288217 25.25 108.9375 C24.74339844 108.36966797 24.23679687 107.80183594 23.71484375 107.21679688 C22.46886864 105.8180135 21.23339027 104.40989267 20 103 C21.7963862 98.26508081 25.73032134 95.5008232 29.48046875 92.33007812 C34.02065295 88.34755923 37.38761637 84.27805356 38.53125 78.15625 C38.51578125 76.84140625 38.51578125 76.84140625 38.5 75.5 C38.5103125 74.6234375 38.520625 73.746875 38.53125 72.84375 C37.00467698 64.6720944 30.92685207 59.587384 25.1875 54.0625 C20.17901629 49.19440248 15.31771109 44.31611868 10.7668457 39.01586914 C7.48448787 35.27088799 3.99673637 31.73115144 0.5 28.1875 C-0.22058594 27.43791016 -0.94117187 26.68832031 -1.68359375 25.91601562 C-6.53226224 21.01035555 -10.46667758 17.73983822 -17.44140625 16.6015625 C-18.14136719 16.60929687 -18.84132812 16.61703125 -19.5625 16.625 C-20.61630859 16.61339844 -20.61630859 16.61339844 -21.69140625 16.6015625 C-27.599137 17.62117085 -31.77334089 21.24277443 -36 25.25 C-36.78491821 25.98742432 -36.78491821 25.98742432 -37.58569336 26.73974609 C-46.80959634 35.36245745 -46.80959634 35.36245745 -51 47 C-50.66405027 51.98325438 -49.5264561 56.31325044 -46 60 C-47.61010527 64.07376031 -50.53822271 66.76507069 -53.625 69.75 C-54.140625 70.25660156 -54.65625 70.76320313 -55.1875 71.28515625 C-56.45383339 72.52803902 -57.7263144 73.76465276 -59 75 C-64.49009519 72.86100187 -66.37846313 67.98014674 -69 63 C-73.27469234 53.22927466 -72.5317385 42.32002652 -69.1015625 32.40234375 C-64.79403836 22.76387662 -56.8592509 15.22445552 -48.84765625 8.55078125 C-46.9985212 7.03679878 -46.9985212 7.03679878 -45.37109375 5.41796875 C-33.40866767 -5.96795486 -14.42335785 -7.82443596 0 0 Z " fill="#FF4276" transform="translate(95,44)"/>
<path d="M0 0 C4.00374431 1.83692389 6.71957934 4.49117916 9.75 7.625 C10.25660156 8.140625 10.76320312 8.65625 11.28515625 9.1875 C12.52803902 10.45383339 13.76465276 11.7263144 15 13 C11.77772582 16.86672902 8.53258482 20.47854807 4.875 23.9375 C-1.03183287 29.83301709 -3.3891347 34.96280844 -3.62890625 43.3125 C-1.68090594 51.63687401 5.28991771 57.77070112 11.10546875 63.609375 C11.98471512 64.49860657 12.86396149 65.38783813 13.76985168 66.30401611 C15.62427381 68.17356426 17.48272835 70.0391203 19.3449707 71.90087891 C21.24163191 73.7972958 23.12716891 75.70375403 25.00317383 77.62060547 C27.73051504 80.40311927 30.47755699 83.16468247 33.23046875 85.921875 C34.05999557 86.77295837 34.8895224 87.62404175 35.7441864 88.50091553 C40.88482609 93.58253771 45.8173519 97.40930974 53 99 C60.53656877 98.84172009 65.5496241 95.99369595 71 91 C71.92425781 90.15566406 72.84851563 89.31132812 73.80078125 88.44140625 C80.01678546 82.58789931 85.89211296 76.94462356 86.5 68 C86.3137523 64.06551735 84.83986825 61.12519114 82.875 57.76171875 C82 56 82 56 82 53 C83.19335938 51.46606445 83.19335938 51.46606445 84.84375 49.86328125 C85.43027344 49.28642578 86.01679688 48.70957031 86.62109375 48.11523438 C87.24113281 47.52033203 87.86117187 46.92542969 88.5 46.3125 C89.12003906 45.70599609 89.74007812 45.09949219 90.37890625 44.47460938 C91.91264707 42.97626257 93.45548198 41.48723507 95 40 C101.89923559 45.02708121 105.44542356 52.66181726 107 61 C107.93524214 73.69257185 105.66050194 82.88295739 98 93 C94.88762862 96.56034855 91.59806903 99.91198523 88.25 103.25 C87.40695313 104.12140625 86.56390625 104.9928125 85.6953125 105.890625 C77.04198644 114.57041383 67.54800409 119.84533134 55.1875 120.3125 C39.66921889 119.90850187 29.11741311 111.74584498 18.609375 101.10546875 C17.65220722 100.14845648 16.69436829 99.19211507 15.73590088 98.23640442 C13.74297231 96.24484954 11.75710001 94.24660286 9.77636719 92.24291992 C7.25797687 89.696129 4.72430145 87.16522629 2.18532944 84.63897228 C0.20977586 82.67042733 -1.75825615 80.69449624 -3.72411346 78.71627235 C-5.10182645 77.33195333 -6.48495126 75.95302691 -7.8682251 74.57426453 C-18.49213632 63.79147776 -24.50861045 54.40564937 -24.42626953 39.02758789 C-23.95965826 25.35587753 -17.09965772 16.75991293 -7.75 7.625 C-7.00492188 6.88894531 -6.25984375 6.15289062 -5.4921875 5.39453125 C-3.66594238 3.59169953 -1.83517795 1.79373022 0 0 Z " fill="#FF4177" transform="translate(84,98)"/>
<path d="M0 0 C47.16981132 0 47.16981132 0 56 7.3125 C61.45659491 13.40874359 63.35281232 20.64442007 63.21484375 28.75390625 C62.53079 35.90537724 60.37034773 42.08670314 55 47 C52.48291272 48.44581493 49.94559955 49.71781175 47.3046875 50.921875 C44.80853151 52.01939822 44.80853151 52.01939822 42 54 C43.62356248 56.5217691 45.24861018 59.04255471 46.875 61.5625 C47.36589111 62.32377197 47.85678223 63.08504395 48.36254883 63.86938477 C50.86191617 67.73473662 53.38039158 71.58407666 55.95703125 75.3984375 C56.41674316 76.07962646 56.87645508 76.76081543 57.35009766 77.46264648 C58.22987667 78.76175792 59.11356532 80.05823173 60.00146484 81.35180664 C63 85.78115525 63 85.78115525 63 88 C60.30568602 88.27276519 57.63904455 88.46858303 54.9375 88.625 C54.18533203 88.70878906 53.43316406 88.79257813 52.65820312 88.87890625 C50.13234594 88.98825072 48.38396973 88.86573741 46 88 C43.02722453 85.05100985 41.08201004 81.61115818 39 78 C37.76389149 76.00857389 36.52689807 74.01769681 35.2890625 72.02734375 C34.06424915 69.99948113 32.84291096 67.96951561 31.625 65.9375 C30.38923237 63.88338523 29.15231811 61.82995969 27.9140625 59.77734375 C27.3773291 58.88265381 26.8405957 57.98796387 26.28759766 57.06616211 C25.16225154 55.08687377 25.16225154 55.08687377 24 54 C21.03 53.67 18.06 53.34 15 53 C15 64.55 15 76.1 15 88 C10.05 88 5.1 88 0 88 C0 58.96 0 29.92 0 0 Z M15 13 C15 22.57 15 32.14 15 42 C20.259375 42.0928125 20.259375 42.0928125 25.625 42.1875 C26.71893066 42.21481201 27.81286133 42.24212402 28.93994141 42.27026367 C34.3804927 42.31667454 38.33027453 42.13592946 43 39 C46.78159208 34.82720874 47.36227199 30.80600022 47.2734375 25.3515625 C46.80147723 21.29270417 45.5326876 19.24703539 43 16 C37.04244361 12.62143842 31.79540052 12.63441985 25.0625 12.8125 C21.741875 12.874375 18.42125 12.93625 15 13 Z " fill="#363636" transform="translate(659,87)"/>
<path d="M0 0 C5.28 0 10.56 0 16 0 C16.01458252 1.77568359 16.02916504 3.55136719 16.04418945 5.38085938 C16.09600347 11.27226226 16.16133269 17.16343362 16.23571491 23.05458832 C16.28028966 26.62360846 16.31957324 30.19251786 16.34643555 33.76171875 C16.37259851 37.21139862 16.4130901 40.66064928 16.46318626 44.11006165 C16.48779316 46.05516814 16.49786607 48.00044115 16.50764465 49.94567871 C16.64573625 61.1326614 16.64573625 61.1326614 22.375 70.375 C27.95301296 73.82805564 32.49525995 74.70412135 39 74 C44.71341083 72.28597675 47.71306531 69.97735824 51 65 C53.31527758 57.95748535 53.34346324 51.1179286 53.4140625 43.75 C53.43342865 42.49614502 53.4527948 41.24229004 53.4727478 39.95043945 C53.52216934 36.64288324 53.56353453 33.33535914 53.60089111 30.02764893 C53.64114634 26.64203189 53.69213962 23.25657768 53.7421875 19.87109375 C53.83794705 13.24749241 53.92207999 6.62383425 54 0 C58.95 0 63.9 0 69 0 C69.09096485 7.72886319 69.16409421 15.45742506 69.20724869 23.18667889 C69.22797799 26.77708271 69.25602042 30.36709615 69.30175781 33.95727539 C69.3457481 37.43271947 69.36924676 40.90779206 69.37950897 44.38349342 C69.39031783 46.3313639 69.42145527 48.27908834 69.45318604 50.22673035 C69.45624936 62.59956326 67.21225718 73.00442682 58.37890625 81.96875 C48.75761164 90.18397693 37.00437041 89.93730962 25 89 C16.85712277 87.34551087 10.17820517 82.59343647 5.46484375 75.78125 C-0.32582483 65.38168194 -0.3008343 53.31150728 -0.1953125 41.69921875 C-0.19106766 39.89563652 -0.19106766 39.89563652 -0.18673706 38.05561829 C-0.17566289 34.2661384 -0.1505829 30.47690681 -0.125 26.6875 C-0.11495368 24.09700865 -0.10583075 21.50651355 -0.09765625 18.91601562 C-0.07576552 12.61058339 -0.0413256 6.30533359 0 0 Z " fill="#363636" transform="translate(574,87)"/>
<path d="M0 0 C5.9441461 3.87661702 9.22022469 9.17752796 11 16 C11 17.32 11 18.64 11 20 C-3.53256805 21.22954747 -3.53256805 21.22954747 -7 18.32421875 C-8.14813761 16.25832641 -9.0708768 14.17080858 -10 12 C-13.67506726 8.73327355 -17.04491838 8.57584619 -21.78125 8.796875 C-26.1011583 9.18473052 -26.1011583 9.18473052 -30 11 C-32.07566812 15.29326227 -32.16283133 19.03929518 -31.375 23.6875 C-27.22818879 31.47847864 -14.50365903 34.09711532 -6.60864258 36.82055664 C0.90418049 39.47574772 6.52835274 43.43140014 11 50 C13.63388734 56.46499619 14.05936451 63.38255617 11.9375 70.0625 C9.21510837 76.37693615 4.90454848 81.45579005 -1.3125 84.5 C-11.2191128 87.89309062 -24.10105951 87.51249699 -33.66796875 83.32421875 C-40.43911782 79.47929491 -45.61252061 74.55360712 -48 67 C-48.33 64.69 -48.66 62.38 -49 60 C-43.39 60 -37.78 60 -32 60 C-31.4121875 61.85625 -31.4121875 61.85625 -30.8125 63.75 C-29.33050669 67.71837071 -27.65650816 69.7146824 -24 72 C-18.55005213 73.81664929 -13.74649222 73.85736891 -8.5625 71.3125 C-5.74789861 68.77249387 -4.66160668 67.72153756 -4 64 C-4.08502846 60.66566983 -4.35074606 57.9186797 -6 55 C-11.43981712 50.50307282 -18.05954295 48.26432036 -24.625 45.9375 C-33.89941993 42.63920277 -41.2889749 39.38917663 -47 31 C-49.68511649 24.40925952 -50.07514674 17.49673726 -47.75 10.75 C-44.64424371 3.5554728 -39.99064298 0.19994221 -33 -3 C-22.82682006 -5.97412638 -9.10930856 -5.50354059 0 0 Z " fill="#363636" transform="translate(262,90)"/>
<path d="M0 0 C4.95 0 9.9 0 15 0 C15.33 11.22 15.66 22.44 16 34 C17.32 32.35 18.64 30.7 20 29 C28.12865896 22.81515079 36.03536403 22.09513956 46 23 C53.6154574 25.0126566 58.60971087 29.55671795 63 36 C65.84151726 43.27948021 66.41912821 50.40103122 66.29296875 58.13671875 C66.28872391 59.14217239 66.28447906 60.14762604 66.28010559 61.18354797 C66.26349646 64.35182046 66.22587897 67.51942425 66.1875 70.6875 C66.17243016 72.85350635 66.15874581 75.01952281 66.14648438 77.18554688 C66.11365142 82.45728351 66.06199487 87.72852894 66 93 C61.05 93 56.1 93 51 93 C50.970271 91.24526367 50.970271 91.24526367 50.93994141 89.45507812 C50.86347389 85.08638138 50.77482197 80.71799996 50.68261719 76.34960938 C50.64449662 74.46425636 50.60961519 72.57883479 50.578125 70.69335938 C50.53210468 67.97240821 50.47417386 65.25192207 50.4140625 62.53125 C50.40251129 61.69758911 50.39096008 60.86392822 50.37905884 60.00500488 C50.24746886 54.70539021 49.45851834 50.10029758 48 45 C47.731875 44.05125 47.46375 43.1025 47.1875 42.125 C45.6032729 39.2900673 44.04664657 38.91399397 41 38 C40.01 37.505 40.01 37.505 39 37 C31.89144099 36.28089204 26.67134654 36.48607112 21 41 C15.94927397 47.51806234 15.83854068 54.36558589 15.68359375 62.23828125 C15.66281265 63.11904831 15.64203156 63.99981537 15.62062073 64.90727234 C15.55546063 67.70893879 15.49639679 70.51069557 15.4375 73.3125 C15.39428285 75.21680606 15.35066756 77.12110312 15.30664062 79.02539062 C15.19981377 83.68350218 15.0984526 88.34170422 15 93 C10.05 93 5.1 93 0 93 C0 62.31 0 31.62 0 0 Z " fill="#363636" transform="translate(288,82)"/>
<path d="M0 0 C6.85930756 5.7245329 11.28361066 12.31696099 13.20703125 21.08203125 C13.99785751 34.27975466 13.43338463 44.66635306 4.83203125 55.33203125 C-1.17287141 61.7988495 -8.2245587 64.86345706 -16.984375 65.40234375 C-27.93774492 65.8032605 -37.34768175 64.96993017 -46.16796875 57.83203125 C-52.90865783 51.36759992 -56.65948057 44.02820737 -57.12890625 34.59375 C-57.36049074 22.27927651 -56.46937895 13.11380977 -47.63671875 3.83203125 C-34.89234816 -8.2643205 -14.70557976 -10.09851701 0 0 Z M-34.86328125 11.81640625 C-40.38643114 17.77863501 -42.25343725 23.67639518 -42.046875 31.74609375 C-41.37959254 37.88509242 -39.39773298 43.84080104 -34.79296875 48.08203125 C-29.16479158 51.4633867 -24.31394889 52.91009222 -17.79296875 52.08203125 C-11.67364679 50.12708718 -7.16859008 46.54520788 -3.79296875 41.08203125 C-0.84562025 33.88369933 -1.09436591 26.52939821 -3.76171875 19.29296875 C-5.88650523 14.73755531 -8.45721536 11.22152205 -13.04296875 8.984375 C-20.72708528 6.26712985 -28.38086851 6.38585671 -34.86328125 11.81640625 Z " fill="#363636" transform="translate(422.79296875,110.91796875)"/>
<path d="M0 0 C4.95 0 9.9 0 15 0 C15 5.61 15 11.22 15 17 C20.28 17 25.56 17 31 17 C31 21.29 31 25.58 31 30 C25.72 30 20.44 30 15 30 C15.04415036 35.33914811 15.11397986 40.67711331 15.20751953 46.015625 C15.2357271 47.83128439 15.25694274 49.64706652 15.27099609 51.46289062 C15.29242909 54.07485789 15.33907885 56.68534974 15.390625 59.296875 C15.39185364 60.10743347 15.39308228 60.91799194 15.39434814 61.75311279 C15.4879333 65.36240266 15.67615538 67.5612538 17.84960938 70.50585938 C20.69583696 72.48348345 22.81022692 72.60044465 26.25 72.75 C28.1475 72.8325 30.045 72.915 32 73 C32 77.29 32 81.58 32 86 C28.95778935 86.08132642 25.9177762 86.14065374 22.875 86.1875 C22.0190625 86.21263672 21.163125 86.23777344 20.28125 86.26367188 C14.14458442 86.33447955 9.85810487 85.5824805 5.13671875 81.31640625 C4.65847656 80.73761719 4.18023437 80.15882813 3.6875 79.5625 C3.19636719 78.98628906 2.70523437 78.41007812 2.19921875 77.81640625 C0.09195467 74.6246219 -0.12483729 71.44598171 -0.11352539 67.69042969 C-0.11344986 66.84986023 -0.11337433 66.00929077 -0.11329651 65.14324951 C-0.10813522 64.24519592 -0.10297394 63.34714233 -0.09765625 62.421875 C-0.0962413 61.4953009 -0.09482635 60.56872681 -0.09336853 59.61407471 C-0.08777824 56.65935008 -0.0752275 53.70470167 -0.0625 50.75 C-0.05748375 48.74479276 -0.05292106 46.73958433 -0.04882812 44.734375 C-0.03781199 39.82288737 -0.020554 34.9114566 0 30 C-3.3 30 -6.6 30 -10 30 C-10 25.71 -10 21.42 -10 17 C-6.7 17 -3.4 17 0 17 C0 11.39 0 5.78 0 0 Z " fill="#363636" transform="translate(503,89)"/>
<path d="M0 0 C4.95 0 9.9 0 15 0 C15 25.08 15 50.16 15 76 C25.23 76 35.46 76 46 76 C46 79.96 46 83.92 46 88 C30.82 88 15.64 88 0 88 C0 58.96 0 29.92 0 0 Z " fill="#363636" transform="translate(733,87)"/>
<path d="M0 0 C0 5.28 0 10.56 0 16 C-2.97 16.3403125 -2.97 16.3403125 -6 16.6875 C-11.94978076 17.63376143 -16.65742921 18.67648589 -21 23 C-23.90315309 28.79664868 -24.45975521 34.80971801 -24.51171875 41.19140625 C-24.52966995 42.02212143 -24.54762115 42.85283661 -24.56611633 43.70872498 C-24.61970918 46.3266004 -24.65394879 48.94429904 -24.6875 51.5625 C-24.72071831 53.35223789 -24.75521206 55.14195259 -24.79101562 56.93164062 C-24.87540521 61.28763167 -24.94245691 65.64357497 -25 70 C-29.95 70 -34.9 70 -40 70 C-40 47.23 -40 24.46 -40 1 C-35.05 1 -30.1 1 -25 1 C-24.67 4.3 -24.34 7.6 -24 11 C-23.45859375 10.24332031 -22.9171875 9.48664063 -22.359375 8.70703125 C-19.81758034 5.79070062 -17.69142311 4.41266936 -14.25 2.6875 C-12.77273438 1.91986328 -12.77273438 1.91986328 -11.265625 1.13671875 C-8 0 -8 0 0 0 Z " fill="#363636" transform="translate(489,105)"/>
</svg>
